# Blender 3.4.1
# www.blender.org
mtllib ripstick.mtl
o Circle.001
v -63.874588 4.647360 0.000000
v -63.915672 5.431324 0.000000
v -64.038483 6.206698 0.000000
v -64.241661 6.964988 0.000000
v -64.522995 7.697886 0.000000
v -64.879395 8.397360 0.000000
v -65.306961 9.055750 0.000000
v -65.801003 9.665840 0.000000
v -66.356110 10.220946 0.000000
v -66.966202 10.714988 0.000000
v -67.624588 11.142551 0.000000
v -68.324066 11.498951 0.000000
v -69.056961 11.780285 0.000000
v -69.815247 11.983467 0.000000
v -70.590622 12.106275 0.000000
v -71.374588 12.147360 0.000000
v -72.158554 12.106275 0.000000
v -72.933929 11.983467 0.000000
v -73.692215 11.780285 0.000000
v -74.425110 11.498951 0.000000
v -75.124588 11.142551 0.000000
v -75.782974 10.714988 0.000000
v -76.393066 10.220946 0.000000
v -76.948174 9.665840 0.000000
v -77.442215 9.055750 0.000000
v -77.869781 8.397360 0.000000
v -78.226181 7.697886 0.000000
v -78.507515 6.964988 0.000000
v -78.710693 6.206698 0.000000
v -78.833504 5.431324 0.000000
v -78.874588 4.647360 0.000000
v -78.833504 3.863397 0.000000
v -78.710693 3.088022 0.000000
v -78.507515 2.329733 0.000000
v -78.226181 1.596835 0.000000
v -77.869781 0.897360 0.000000
v -77.442215 0.238971 0.000000
v -76.948174 -0.371119 0.000000
v -76.393066 -0.926226 0.000000
v -75.782974 -1.420267 0.000000
v -75.124588 -1.847830 0.000000
v -74.425110 -2.204230 0.000000
v -73.692215 -2.485564 0.000000
v -72.933929 -2.688747 0.000000
v -72.158554 -2.811554 0.000000
v -71.374588 -2.852640 0.000000
v -70.590622 -2.811554 0.000000
v -69.815247 -2.688747 0.000000
v -69.056961 -2.485564 0.000000
v -68.324066 -2.204230 0.000000
v -67.624588 -1.847830 0.000000
v -66.966202 -1.420267 0.000000
v -66.356110 -0.926226 0.000000
v -65.801003 -0.371119 0.000000
v -65.306961 0.238971 0.000000
v -64.879395 0.897360 0.000000
v -64.522995 1.596835 0.000000
v -64.241661 2.329733 0.000000
v -64.038483 3.088022 0.000000
v -63.915672 3.863397 0.000000
v -63.874588 4.647360 69.999947
v -63.915672 5.431324 69.999947
v -64.038483 6.206698 69.999947
v -64.241661 6.964988 69.999947
v -64.522995 7.697886 69.999947
v -64.879395 8.397360 69.999947
v -65.306961 9.055750 69.999947
v -65.801003 9.665840 69.999947
v -66.356110 10.220946 69.999947
v -66.966202 10.714988 69.999947
v -67.624588 11.142551 69.999947
v -68.324066 11.498951 69.999947
v -69.056961 11.780285 69.999947
v -69.815247 11.983467 69.999947
v -70.590622 12.106275 69.999947
v -71.374588 12.147360 69.999947
v -72.158554 12.106275 69.999947
v -72.933929 11.983467 69.999947
v -73.692215 11.780285 69.999947
v -74.425110 11.498951 69.999947
v -75.124588 11.142551 69.999947
v -75.782974 10.714988 69.999947
v -76.393066 10.220946 69.999947
v -76.948174 9.665840 69.999947
v -77.442215 9.055750 69.999947
v -77.869781 8.397360 69.999947
v -78.226181 7.697886 69.999947
v -78.507515 6.964988 69.999947
v -78.710693 6.206698 69.999947
v -78.833504 5.431324 69.999947
v -78.874588 4.647360 69.999947
v -78.833504 3.863397 69.999947
v -78.710693 3.088022 69.999947
v -78.507515 2.329733 69.999947
v -78.226181 1.596835 69.999947
v -77.869781 0.897360 69.999947
v -77.442215 0.238971 69.999947
v -76.948174 -0.371119 69.999947
v -76.393066 -0.926226 69.999947
v -75.782974 -1.420267 69.999947
v -75.124588 -1.847830 69.999947
v -74.425110 -2.204230 69.999947
v -73.692215 -2.485564 69.999947
v -72.933929 -2.688747 69.999947
v -72.158554 -2.811554 69.999947
v -71.374588 -2.852640 69.999947
v -70.590622 -2.811554 69.999947
v -69.815247 -2.688747 69.999947
v -69.056961 -2.485564 69.999947
v -68.324066 -2.204230 69.999947
v -67.624588 -1.847830 69.999947
v -66.966202 -1.420267 69.999947
v -66.356110 -0.926226 69.999947
v -65.801003 -0.371119 69.999947
v -65.306961 0.238971 69.999947
v -64.879395 0.897360 69.999947
v -64.522995 1.596835 69.999947
v -64.241661 2.329733 69.999947
v -64.038483 3.088022 69.999947
v -63.915672 3.863397 69.999947
vn 0.2588 -0.9659 -0.0000
vn 0.0523 0.9986 -0.0000
vn 0.3584 -0.9336 -0.0000
vn -0.0523 0.9986 -0.0000
vn 0.4540 -0.8910 -0.0000
vn -0.1564 0.9877 -0.0000
vn 0.5446 -0.8387 -0.0000
vn -0.2588 0.9659 -0.0000
vn 0.6293 -0.7771 -0.0000
vn -0.3584 0.9336 -0.0000
vn 0.7071 -0.7071 -0.0000
vn -0.4540 0.8910 -0.0000
vn 0.7771 -0.6293 -0.0000
vn -0.5446 0.8387 -0.0000
vn 0.8387 -0.5446 -0.0000
vn -0.6293 0.7771 -0.0000
vn 0.8910 -0.4540 -0.0000
vn -0.7071 0.7071 -0.0000
vn 0.9336 -0.3584 -0.0000
vn -0.9986 -0.0523 -0.0000
vn -0.7771 0.6293 -0.0000
vn 0.9659 -0.2588 -0.0000
vn -0.9877 -0.1564 -0.0000
vn -0.8387 0.5446 -0.0000
vn 0.9877 -0.1564 -0.0000
vn -0.9659 -0.2588 -0.0000
vn -0.8910 0.4540 -0.0000
vn 0.9986 -0.0523 -0.0000
vn -0.9336 -0.3584 -0.0000
vn -0.9336 0.3584 -0.0000
vn 0.9986 0.0523 -0.0000
vn -0.8910 -0.4540 -0.0000
vn -0.9659 0.2588 -0.0000
vn 0.9877 0.1564 -0.0000
vn -0.8387 -0.5446 -0.0000
vn -0.9877 0.1564 -0.0000
vn 0.9659 0.2588 -0.0000
vn -0.7771 -0.6293 -0.0000
vn -0.9986 0.0523 -0.0000
vn 0.9336 0.3584 -0.0000
vn -0.7071 -0.7071 -0.0000
vn 0.8910 0.4540 -0.0000
vn -0.6293 -0.7771 -0.0000
vn 0.8387 0.5446 -0.0000
vn -0.5446 -0.8387 -0.0000
vn 0.7771 0.6293 -0.0000
vn -0.4540 -0.8910 -0.0000
vn 0.7071 0.7071 -0.0000
vn -0.3584 -0.9336 -0.0000
vn 0.6293 0.7771 -0.0000
vn -0.2588 -0.9659 -0.0000
vn 0.5446 0.8387 -0.0000
vn -0.1564 -0.9877 -0.0000
vn 0.4540 0.8910 -0.0000
vn -0.0523 -0.9986 -0.0000
vn 0.3584 0.9336 -0.0000
vn 0.0523 -0.9986 -0.0000
vn 0.2588 0.9659 -0.0000
vn 0.1564 -0.9877 -0.0000
vn 0.1564 0.9877 -0.0000
vn -0.0000 -0.0000 1.0000
vn -0.0000 -0.0000 -1.0000
vt 0.000000 0.000000
vt 0.000000 0.000000
vt 0.000000 0.000000
vt 0.000000 0.000000
vt 0.000000 0.000000
vt 0.000000 0.000000
vt 0.000000 0.000000
vt 0.000000 0.000000
vt 0.000000 0.000000
vt 0.000000 0.000000
vt 0.000000 0.000000
vt 0.000000 0.000000
vt 0.000000 0.000000
vt 0.000000 0.000000
vt 0.000000 0.000000
vt 0.000000 0.000000
vt 0.000000 0.000000
vt 0.000000 0.000000
vt 0.000000 0.000000
vt 0.000000 0.000000
vt 0.000000 0.000000
vt 0.000000 0.000000
vt 0.000000 0.000000
vt 0.000000 0.000000
vt 0.000000 0.000000
vt 0.000000 0.000000
vt 0.000000 0.000000
vt 0.000000 0.000000
vt 0.000000 0.000000
vt 0.000000 0.000000
vt 0.000000 0.000000
vt 0.000000 0.000000
vt 0.000000 0.000000
vt 0.000000 0.000000
vt 0.000000 0.000000
vt 0.000000 0.000000
vt 0.000000 0.000000
vt 0.000000 0.000000
vt 0.000000 0.000000
vt 0.000000 0.000000
vt 0.000000 0.000000
vt 0.000000 0.000000
vt 0.000000 0.000000
vt 0.000000 0.000000
vt 0.000000 0.000000
vt 0.000000 0.000000
vt 0.000000 0.000000
vt 0.000000 0.000000
vt 0.000000 0.000000
vt 0.000000 0.000000
vt 0.000000 0.000000
vt 0.000000 0.000000
vt 0.000000 0.000000
vt 0.000000 0.000000
vt 0.000000 0.000000
vt 0.000000 0.000000
vt 0.000000 0.000000
vt 0.000000 0.000000
vt 0.000000 0.000000
vt 0.000000 0.000000
vt 0.000000 0.000000
vt 0.000000 0.000000
vt 0.000000 0.000000
vt 0.000000 0.000000
vt 0.000000 0.000000
vt 0.000000 0.000000
vt 0.000000 0.000000
vt 0.000000 0.000000
vt 0.000000 0.000000
vt 0.000000 0.000000
vt 0.000000 0.000000
vt 0.000000 0.000000
vt 0.000000 0.000000
vt 0.000000 0.000000
vt 0.000000 0.000000
vt 0.000000 0.000000
vt 0.000000 0.000000
vt 0.000000 0.000000
vt 0.000000 0.000000
vt 0.000000 0.000000
vt 0.000000 0.000000
vt 0.000000 0.000000
vt 0.000000 0.000000
vt 0.000000 0.000000
vt 0.000000 0.000000
vt 0.000000 0.000000
vt 0.000000 0.000000
vt 0.000000 0.000000
vt 0.000000 0.000000
vt 0.000000 0.000000
vt 0.000000 0.000000
vt 0.000000 0.000000
vt 0.000000 0.000000
vt 0.000000 0.000000
vt 0.000000 0.000000
vt 0.000000 0.000000
vt 0.000000 0.000000
vt 0.000000 0.000000
vt 0.000000 0.000000
vt 0.000000 0.000000
vt 0.000000 0.000000
vt 0.000000 0.000000
vt 0.000000 0.000000
vt 0.000000 0.000000
vt 0.000000 0.000000
vt 0.000000 0.000000
vt 0.000000 0.000000
vt 0.000000 0.000000
vt 0.000000 0.000000
vt 0.000000 0.000000
vt 0.000000 0.000000
vt 0.000000 0.000000
vt 0.000000 0.000000
vt 0.000000 0.000000
vt 0.000000 0.000000
vt 0.000000 0.000000
vt 0.000000 0.000000
vt 0.000000 0.000000
vt 0.000000 0.000000
vt 0.000000 0.000000
s 0
g Circle.001_マテリアル.003
usemtl マテリアル.003
f 19/19/1 18/18/1 78/78/1 79/79/1
f 46/46/2 45/45/2 105/105/2 106/106/2
f 20/20/3 19/19/3 79/79/3 80/80/3
f 47/47/4 46/46/4 106/106/4 107/107/4
f 21/21/5 20/20/5 80/80/5 81/81/5
f 48/48/6 47/47/6 107/107/6 108/108/6
f 22/22/7 21/21/7 81/81/7 82/82/7
f 49/49/8 48/48/8 108/108/8 109/109/8
f 23/23/9 22/22/9 82/82/9 83/83/9
f 50/50/10 49/49/10 109/109/10 110/110/10
f 24/24/11 23/23/11 83/83/11 84/84/11
f 51/51/12 50/50/12 110/110/12 111/111/12
f 25/25/13 24/24/13 84/84/13 85/85/13
f 52/52/14 51/51/14 111/111/14 112/112/14
f 26/26/15 25/25/15 85/85/15 86/86/15
f 53/53/16 52/52/16 112/112/16 113/113/16
f 27/27/17 26/26/17 86/86/17 87/87/17
f 54/54/18 53/53/18 113/113/18 114/114/18
f 28/28/19 27/27/19 87/87/19 88/88/19
f 2/2/20 1/1/20 61/61/20 62/62/20
f 55/55/21 54/54/21 114/114/21 115/115/21
f 29/29/22 28/28/22 88/88/22 89/89/22
f 3/3/23 2/2/23 62/62/23 63/63/23
f 56/56/24 55/55/24 115/115/24 116/116/24
f 30/30/25 29/29/25 89/89/25 90/90/25
f 4/4/26 3/3/26 63/63/26 64/64/26
f 57/57/27 56/56/27 116/116/27 117/117/27
f 31/31/28 30/30/28 90/90/28 91/91/28
f 5/5/29 4/4/29 64/64/29 65/65/29
f 58/58/30 57/57/30 117/117/30 118/118/30
f 32/32/31 31/31/31 91/91/31 92/92/31
f 6/6/32 5/5/32 65/65/32 66/66/32
f 59/59/33 58/58/33 118/118/33 119/119/33
f 33/33/34 32/32/34 92/92/34 93/93/34
f 7/7/35 6/6/35 66/66/35 67/67/35
f 60/60/36 59/59/36 119/119/36 120/120/36
f 34/34/37 33/33/37 93/93/37 94/94/37
f 8/8/38 7/7/38 67/67/38 68/68/38
f 1/1/39 60/60/39 120/120/39 61/61/39
f 35/35/40 34/34/40 94/94/40 95/95/40
f 9/9/41 8/8/41 68/68/41 69/69/41
f 36/36/42 35/35/42 95/95/42 96/96/42
f 10/10/43 9/9/43 69/69/43 70/70/43
f 37/37/44 36/36/44 96/96/44 97/97/44
f 11/11/45 10/10/45 70/70/45 71/71/45
f 38/38/46 37/37/46 97/97/46 98/98/46
f 12/12/47 11/11/47 71/71/47 72/72/47
f 39/39/48 38/38/48 98/98/48 99/99/48
f 13/13/49 12/12/49 72/72/49 73/73/49
f 40/40/50 39/39/50 99/99/50 100/100/50
f 14/14/51 13/13/51 73/73/51 74/74/51
f 41/41/52 40/40/52 100/100/52 101/101/52
f 15/15/53 14/14/53 74/74/53 75/75/53
f 42/42/54 41/41/54 101/101/54 102/102/54
f 16/16/55 15/15/55 75/75/55 76/76/55
f 43/43/56 42/42/56 102/102/56 103/103/56
f 17/17/57 16/16/57 76/76/57 77/77/57
f 44/44/58 43/43/58 103/103/58 104/104/58
f 18/18/59 17/17/59 77/77/59 78/78/59
f 45/45/60 44/44/60 104/104/60 105/105/60
f 2/2/61 3/3/61 4/4/61 5/5/61 6/6/61 7/7/61 8/8/61 9/9/61 10/10/61 11/11/61 12/12/61 13/13/61 14/14/61 15/15/61 16/16/61 17/17/61 18/18/61 19/19/61 20/20/61 21/21/61 22/22/61 23/23/61 24/24/61 25/25/61 26/26/61 27/27/61 28/28/61 29/29/61 30/30/61 31/31/61 32/32/61 33/33/61 34/34/61 35/35/61 36/36/61 37/37/61 38/38/61 39/39/61 40/40/61 41/41/61 42/42/61 43/43/61 44/44/61 45/45/61 46/46/61 47/47/61 48/48/61 49/49/61 50/50/61 51/51/61 52/52/61 53/53/61 54/54/61 55/55/61 56/56/61 57/57/61 58/58/61 59/59/61 60/60/61 1/1/61
f 62/62/62 61/61/62 120/120/62 119/119/62 118/118/62 117/117/62 116/116/62 115/115/62 114/114/62 113/113/62 112/112/62 111/111/62 110/110/62 109/109/62 108/108/62 107/107/62 106/106/62 105/105/62 104/104/62 103/103/62 102/102/62 101/101/62 100/100/62 99/99/62 98/98/62 97/97/62 96/96/62 95/95/62 94/94/62 93/93/62 92/92/62 91/91/62 90/90/62 89/89/62 88/88/62 87/87/62 86/86/62 85/85/62 84/84/62 83/83/62 82/82/62 81/81/62 80/80/62 79/79/62 78/78/62 77/77/62 76/76/62 75/75/62 74/74/62 73/73/62 72/72/62 71/71/62 70/70/62 69/69/62 68/68/62 67/67/62 66/66/62 65/65/62 64/64/62 63/63/62
